<?xml version="1.0" encoding="UTF-8"?><svg id="Layer_2" xmlns="http://www.w3.org/2000/svg" viewBox="0 0 258.87 193.89"><defs><style>.cls-1{fill:#ffaba1;}</style></defs><g id="Layer_1-2"><path class="cls-1" d="M255.77,.07c1.27,.26,3.61-1.08,3,2-9.56,15.88-19.07,31.78-28.68,47.62-27.94,46.03-55.94,92.02-83.86,138.06-1.61,2.66-3.44,4.9-6.35,6.13h-2c-10.03-6.71-20.12-13.34-30.05-20.2-2.53-1.74-4.31-1.95-6.97-.12-8.34,5.73-16.87,11.17-25.41,16.59-1.99,1.27-3.95,3.73-6.64,2.33-2.7-1.41-1.86-4.39-1.89-6.8-.13-11.31,.09-22.64-.37-33.94-.18-4.55,1.42-7.16,4.94-9.77,40.01-29.68,79.93-59.48,119.82-89.32,3.92-2.94,8.2-5.5,11.64-9.24-2.16-1.33-3.41,.29-4.75,.99-14.81,7.76-29.53,15.67-44.35,23.41-36.82,19.23-73.67,38.41-110.53,57.56-1.46,.76-2.73,2.27-4.9,.8C25.43,117.37,12.06,109.1,0,98.98,0,97.31,0,95.65,0,93.98c3.87-1.69,7.67-3.55,11.62-5.03C77.27,64.23,143.51,41.1,209.39,17.02c15.46-5.65,30.92-11.3,46.37-16.94Z"/></g></svg>